# xmcd
#
# Track frame offsets:
#	150
#	11135
#	24770
#	42743
#	54746
#	67556
#	85641
#	98321
#	114189
#	128243
#
# Disc length: 1938 seconds
#
# Revision: 1
# Processed by: cddbd v1.5.1PL2 Copyright (c) Steve Scherf et al.
# Submitted via: audiograbber 1.83.01
#
DISCID=6b07900a
DTITLE=Various Artist - Ultimate Classic Country, Vol. 1
DYEAR=2003
DGENRE=Country
TTITLE0=Eddy Arnold - Make The World Go Away
TTITLE1=Jimmy Dean - Big John
TTITLE2=Merle Haggard - Ramblin' Fever
TTITLE3=Marie Osmond - Paper Roses
TTITLE4=Hank Thompson - The Wild Side Of Life
TTITLE5=Hank Williams Jr. - Family Tradition
TTITLE6=Ronnie McDowell - Older Women
TTITLE7=The Judds - Why Not Me
TTITLE8=The Whites - You Put The Blue In Me
TTITLE9=Johnny Lee - Lookin' For Love
EXTD=
EXTT0=
EXTT1=
EXTT2=
EXTT3=
EXTT4=
EXTT5=
EXTT6=
EXTT7=
EXTT8=
EXTT9=
PLAYORDER=
